<?xml version="1.0" encoding="utf-8"?>
<!-- Generator: Adobe Illustrator 25.1.0, SVG Export Plug-In . SVG Version: 6.00 Build 0)  -->
<svg version="1.1" id="Layer_1" xmlns="http://www.w3.org/2000/svg" xmlns:xlink="http://www.w3.org/1999/xlink" x="0px" y="0px"
	 viewBox="0 0 28.6 31.9" style="enable-background:new 0 0 28.6 31.9;" xml:space="preserve">
<style type="text/css">
	.st0{fill:#FFFFFF;}
</style>
<path class="st0" d="M5.4,22.8v7.5L0.8,26c-0.2-0.2-0.5-0.2-0.7,0c-0.2,0.2-0.2,0.5,0,0.7l5.3,5.1C5.7,32,6,32,6.2,31.8l5.3-5.1
	c0.1-0.1,0.2-0.2,0.2-0.4c0-0.1,0-0.2-0.1-0.3c-0.2-0.2-0.5-0.2-0.7,0l-4.4,4.2v-7.3C6.4,10.8,16.2,1,28.1,1c0.3,0,0.5-0.2,0.5-0.5
	S28.4,0,28.1,0C15.6,0,5.4,10.2,5.4,22.8z"/>
</svg>
