<svg id="Layer_1" data-name="Layer 1" xmlns="http://www.w3.org/2000/svg" viewBox="0 0 100 100"><defs><style>.cls-1{fill:#fc4722;}</style></defs><path class="cls-1" d="M94.44,50a5.56,5.56,0,0,0-5.55,5.43h0V77.78A11.11,11.11,0,0,1,77.81,88.89H22.19A11.09,11.09,0,0,1,11.11,77.81V22.19A11.11,11.11,0,0,1,22.17,11.11H50.56v0a5.55,5.55,0,0,0,0-11V0H22.17A22.22,22.22,0,0,0,0,22.19V77.81A22.2,22.2,0,0,0,22.19,100H77.81A22.22,22.22,0,0,0,100,77.78V55.43h0A5.56,5.56,0,0,0,94.44,50ZM100,5a2.21,2.21,0,0,0,0-.25,3.06,3.06,0,0,0-.1-.51,3.94,3.94,0,0,0-.14-.49,3.85,3.85,0,0,0-.19-.47,4.71,4.71,0,0,0-.22-.45L99,2.4,98.7,2c-.11-.13-.22-.25-.34-.37L98,1.3c-.12-.1-.26-.2-.4-.3a4.32,4.32,0,0,0-.42-.27,4.71,4.71,0,0,0-.45-.22,3.85,3.85,0,0,0-.47-.19,3.94,3.94,0,0,0-.49-.14,3.06,3.06,0,0,0-.51-.1L95,0V0H68.27V0a5.55,5.55,0,0,0,0,11.05l-1.65,0H80.93l-10.8,10.8A32.13,32.13,0,0,0,52.2,16.67a33.33,33.33,0,0,0,0,66.66c9,0,16.55-3,22.07-8.07,6.3-5.82,9.92-14.37,9.92-24.52a28.58,28.58,0,0,0-.7-6.81H52.2V56.3H70.57a16.28,16.28,0,0,1-6.82,10.81A19.73,19.73,0,0,1,52.2,70.44a20,20,0,0,1-19-13.85A20.3,20.3,0,0,1,32.13,50a21.41,21.41,0,0,1,1.07-6.59,20.13,20.13,0,0,1,19-13.85,18.48,18.48,0,0,1,12.89,5l0,0a1.83,1.83,0,0,0,.13.16,5.55,5.55,0,0,0,7.44.37l0,0L88.89,18.87V31.73h0a5.55,5.55,0,0,0,11,0h0V5Z"/></svg>