<?xml version="1.0" encoding="utf-8"?>
<!-- Generator: Adobe Illustrator 25.1.0, SVG Export Plug-In . SVG Version: 6.00 Build 0)  -->
<svg version="1.1" id="Layer_1" xmlns="http://www.w3.org/2000/svg" xmlns:xlink="http://www.w3.org/1999/xlink" x="0px" y="0px"
	 viewBox="0 0 750.7 177.1" style="enable-background:new 0 0 750.7 177.1;" xml:space="preserve">
<style type="text/css">
	.st0{fill:#FFFFFF;}
	.st1{fill:#489F08;}
	.st2{fill:#333333;}
</style>
<path class="st1" d="M342.3,22.1c4.6,13.4-0.6,32.1-15.2,55.5c4.3,0.8,9.7,2.4,14.9,6.2c12.6-14.3,24.6-45.8,20.1-64
	c-2.3-9.4-9.6-16.8-19.2-19.2c-5.8-1.5-9.5,0.1-11.5,8.5C333.9,10.2,339.5,13.9,342.3,22.1z M296.5,146.8
	c-9.3-6.2-14.5-12.8-18.9-21.2c-0.2,0.1-0.5,0.2-0.9,0.4l0,0c-5.3,3.1-14.8,14.2-12,22.2c6.9,19.7,32,29.2,39.4,29
	c6.2-0.2,11.7-3.9,16.5-10.9c1.3-1.8,3-7.7,3-8C322.9,154.6,316.1,159.9,296.5,146.8z M386.6,108.6c-3.1-6.3-11-8.4-16.9-5.1
	c-4.1,2.4-8.1,6.7-11.9,12.8c-1.6,2.5-5.9,4.7-11.2,3.3c-0.8-0.2-1.2-1-1-1.7c0.7-2.6,4.3,1,8.5-2c-0.7-0.7-2.9-2.2-3.7-6.2
	C348,98.2,362,89,362,88.9c-2.6-6.9,0.8-12.1,4.2-15.4c0.6-0.5,1.5-0.5,2,0c2.4,2.5-7.1,4.2-3.3,15.1c0.1,0,15,20.9,26.8,2.1
	c2.6-4.7,5.4-9.7,6-15c1.6-13.5-13.8-24.9-29.1-22.5c-2.9,0.5-5.7,1.1-7.8,1.6c-4.5,13-11.5,24.4-16.7,30.5c1.2,1,2.3,2.1,3.4,3.3
	c0.5,0.6,0.5,1.5-0.1,2c-0.6,0.5-1.5,0.5-2-0.1c-11.1-12.3-26.5-10.8-26.6-10.8c-0.3,0-0.7,0-0.9-0.2c-0.3-0.2-0.6-0.6-0.6-1
	c-0.1-0.8,0.5-1.5,1.3-1.6c0.2,0,2.3-0.2,5.5,0.1c35-55.3,5.2-65.8,5.2-66c0,0,0,0,0,0c-0.2,0-3.8-2.1-8.2,0.3
	c-14.4,7.7-7,41.4-19.7,58c-7.7,9.2-19.5,28.7-15.1,43.9c0.9,2.9,0,6.1-2.3,7.9c-1.4,1.2-2.6,2.4-3.5,3.7
	c3.8,7.1,8.4,13.3,17.6,19.4c14,9.4,23.4,9.3,25,9.7c0.4-0.7,0.8-1.5,1.2-2.4c0,0,0,0,0,0c-1.5-0.4-3.2-1-4.9-2.1
	c-1.5-0.9-2.8-2.2-3.8-3.8c-0.4-0.7-0.2-1.5,0.5-1.9c0.7-0.4,1.5-0.2,2,0.5c2.8,4.6,9.8,5.2,9.9,5.2c0.1,0,0.1,0,0.2,0
	c0,0,0.1,0,0.1,0c0.5,0,1,0,1.6,0.1c11.8,0.3,31.7,0.9,46.1-14.4C383,127.3,390.7,117.2,386.6,108.6z"/>
<path class="st2" d="M171.1,77.2H184c6.3,0,7.8-2.3,8.9-8.1h-20.3l2.5-11.6c-6,0-10.7,6.8-11.9,12.4l-7.8,36.6
	c-0.4,2.2-0.6,3.2-0.6,5.5c0,10.2,6.8,15,16.2,15c4.7,0,9.3-1.2,10.5-6.8l0.6-2.9h-0.3c-2.8,1.5-6.8,1.6-9.9,1.6
	c-6.7,0-7.5-4.4-7.5-8c0-1.5,0.2-3.1,0.5-4.6L171.1,77.2z M128.7,67.9c-27.5,0-32.5,30.1-32.5,34.1v0.4c0,23.1,17.5,24.7,22.7,24.7
	c6.7,0,18.9-1.6,20.5-10.1l0.8-3.9h-0.5c-5.5,4.3-11.9,6-18.5,6c-4.4,0-15.4-1.2-15.4-15.3c0-0.4,0.1-1.6,0.2-2.2h5.5
	c27.6,0,36.8-4.6,36.8-16.9C148.1,73.6,138.4,67.9,128.7,67.9z M127.7,93.5c-3.9,0.4-10,0.8-16.4,0.9l-4.8,0.1l0.8-2.6
	c0.6-2.4,6.1-16.2,20.4-16.2c4.7,0,11.5,1.3,11.5,9.6C139.1,90.1,134.2,92.8,127.7,93.5z M219,68c-6.8,0-18.5,3.6-20.5,11.9l-1,4.1
	h0.8c5.3-5.6,12.5-8,19.8-8c5.8,0,12,1.5,12,8.7c0,1.8-0.1,3.1-0.6,5.6l-0.2,1.1h-5.6c-31.7,0-34.2,13.5-34.2,20.2
	c0,14.3,17.7,15.5,19.8,15.5c13.1,0,22.4-5.7,25.4-19.7l3.1-14.7c0.8-3.3,1.1-5.6,1.1-8.2C238.9,68.3,222.9,68,219,68z M227.1,101
	c-2.2,10.8-3.7,18.1-16.7,18.1c-2.3,0-11.1-0.6-11.1-8.3c0-10.1,12.4-12,19.8-12h8.4L227.1,101z M69,67.9c-8,0-15.7,4.2-19.8,10.9
	c-2.5-7.8-8.8-10.9-16.5-10.9c-16.9,0-24.4,14-26.6,24.5l-5.7,26.9C0.2,120,0,120.6,0,121.3c0,3.4,2.3,4.7,5.3,4.7h2.8l6.8-32.3
	c1.5-7.2,5.2-17.6,17.2-17.6c4.2,0,10.3,2,10.3,11.4c0,2.3-0.3,4.2-0.8,6.1l-5.3,25.6c-0.1,0.8-0.4,1.5-0.4,2.3
	c0,3.3,2.3,4.4,5.2,4.4h3l6.9-32.7c1.5-6.9,4.5-17.2,17.7-17.2c3.3,0,10,1,10,10.5c0,2.6-0.5,4.8-1,7.1l-5.3,25.6
	c-0.1,0.6-0.3,1.2-0.3,1.8c0,3.2,2,4.8,5,4.8h3.1l6.9-32.7c0.6-2.8,0.8-4.1,0.8-7.2C87.9,69.4,75.2,67.9,69,67.9z M453.2,61.7h28.3
	c5.6,0,6.4-3.3,7.3-8.1h-33c-6.7,0-10.8,1.3-12.3,8.5l-12.5,58.5c-0.1,0.5-0.2,1.2-0.2,1.7c0,3.1,2.7,3.7,5.2,3.7h3.4l7.3-34.3h23.1
	c5.4,0,6.6-3.2,7.5-8h-29.1L453.2,61.7z M685.4,47.9c-3.2,0-6,2.7-6,6.1s2.7,6.3,5.9,6.3c3.2,0,5.9-2.8,5.9-6.3
	S688.7,47.9,685.4,47.9z M511.7,68c-19.4,0-31.9,16.8-31.9,36.4c0,21,18.5,22.6,23.6,22.6c19.4,0,31-17.7,31-37
	C534.4,69.7,516.2,68,511.7,68z M504,119.2c-6.9,0-14.8-3.8-14.8-15.7c0-12.6,7.7-27.5,21.4-27.5c9.4,0,14.3,5,14.3,14.8
	C525.1,103.3,518.1,119.2,504,119.2z M678.5,112.8c0-1.2,0.1-2.9,0.3-4l6.9-32.5c0.1-0.5,0.2-1.2,0.2-1.7c0-3.3-2.3-5.4-5.4-5.4
	h-2.7l-8.4,39.9c-0.3,1.6-0.5,3.2-0.5,5c0,8.5,5.3,12.6,13.8,12.6c5.2,0,7.3-3.4,8.3-8h-4.6C683.9,118.6,678.5,117.9,678.5,112.8z
	 M714,101.7c27.6,0,36.8-4.6,36.8-16.9c0-11.1-9.7-16.8-19.4-16.8c-27.5,0-32.5,30.1-32.5,34.1v0.4c0,23.1,17.5,24.7,22.7,24.7
	c6.7,0,18.9-1.6,20.5-10.1l0.8-3.9h-0.5c-5.5,4.3-11.9,6-18.5,6c-4.4,0-15.4-1.2-15.4-15.3c0-0.4,0.1-1.6,0.2-2.2H714z M709.9,91.9
	c0.6-2.4,6.1-16.2,20.4-16.2c4.7,0,11.5,1.3,11.5,9.6c0,4.9-5,7.5-11.4,8.2c-3.9,0.4-10,0.8-16.4,0.9l-4.8,0.1L709.9,91.9z
	 M573.6,68c-19.4,0-31.9,16.8-31.9,36.4c0,21,18.5,22.6,23.6,22.6c19.4,0,31-17.7,31-37C596.3,69.7,578.1,68,573.6,68z M565.9,119.2
	c-6.9,0-14.8-3.8-14.8-15.7c0-12.6,7.7-27.5,21.4-27.5c9.4,0,14.3,5,14.3,14.8C586.9,103.3,579.9,119.2,565.9,119.2z M660.6,49.4
	h-2.3l-6.7,31c-1.8-8.8-10.3-12.4-16.8-12.4c-25,0-30.8,26.7-30.8,34.4c0,22.1,19.3,24.7,23,24.7c24.1,0,28.9-22.6,30.7-31.1
	l8.3-39.2c0.2-1,0.3-1.6,0.3-2.5C666.4,50.5,663.9,49.4,660.6,49.4z M628.3,119.1c-2.9,0-14.7-0.9-14.7-17.2c0-6.1,4-25.9,20.8-25.9
	c5.4,0,14.3,1.6,14.3,14.7C648.8,101.4,645.2,119.1,628.3,119.1z"/>
</svg>
