<svg xmlns="http://www.w3.org/2000/svg" xmlns:xlink="http://www.w3.org/1999/xlink" xmlns:sketch="http://www.bohemiancoding.com/sketch/ns" viewBox="0 0 32 40" version="1.1" x="0px" y="0px"><title>strawberry_062-sad-face-avatar-emoticon</title><desc>Created with Sketch.</desc><g stroke="none" stroke-width="1" fill="#499f08" fill-rule="evenodd" sketch:type="MSPage"><path d="M20.5,21.5 C21.3284271,21.5 22,20.7164983 22,19.75 C22,18.7835017 21.3284271,18 20.5,18 C19.6715729,18 19,18.7835017 19,19.75 C19,20.7164983 19.6715729,21.5 20.5,21.5 Z M11.5030508,21.5 C10.6746237,21.5 10.0030508,20.7164983 10.0030508,19.75 C10.0030508,18.7835017 10.6746237,18 11.5030508,18 C12.3314779,18 13.0030508,18.7835017 13.0030508,19.75 C13.0030508,20.7164983 12.3314779,21.5 11.5030508,21.5 Z M14.4246316,25.7639848 C14.4725953,25.6868331 14.5938453,25.5444206 14.7863941,25.3975309 C15.1127054,25.1485979 15.512309,25 16,25 C16.487691,25 16.8872946,25.1485979 17.2136059,25.3975309 C17.4061547,25.5444206 17.5274047,25.6868331 17.5753684,25.7639848 C17.7211632,25.9985024 18.0294673,26.0704264 18.2639848,25.9246316 C18.4985024,25.7788368 18.5704264,25.4705327 18.4246316,25.2360152 C18.3171754,25.0631669 18.1191505,24.8305794 17.8201344,24.6024691 C17.3271707,24.2264021 16.7183393,24 16,24 C15.2816607,24 14.6728293,24.2264021 14.1798656,24.6024691 C13.8808495,24.8305794 13.6828246,25.0631669 13.5753684,25.2360152 C13.4295736,25.4705327 13.5014976,25.7788368 13.7360152,25.9246316 C13.9705327,26.0704264 14.2788368,25.9985024 14.4246316,25.7639848 Z" fill="#499f08" sketch:type="MSShapeGroup"/><g sketch:type="MSLayerGroup" transform="translate(-44.000000, -286.000000)" fill="#499f08"><g transform="translate(48.000000, 288.000000)" sketch:type="MSShapeGroup"><path d="M0.5,15.0046076 C0.5,19.532388 7.88733148,28.7944045 11.9959557,28.794403 C16.1045803,28.7944013 23.491911,19.532387 23.491911,15.0046076 C23.491911,11.3742689 22.6237702,8.84391744 19.9760939,7.5576158 C19.7277122,7.43694629 20.0894349,8.75568031 20.3290701,8.93373779 C21.9229774,10.1180678 22.491911,12.1494781 22.491911,15.0046076 C22.491911,19.0234832 15.4962756,27.7944016 11.9959553,27.794403 C8.49563588,27.7944043 1.5,19.0234841 1.5,15.0046076 C1.5,12.1095139 2.64152591,9.49135719 4.8180864,8.45912042 C5.06759194,8.34079208 4.63908711,7.43725259 4.38958157,7.55558093 C1.7990623,8.78413821 0.5,11.7636139 0.5,15.0046076 Z"/><path d="M10.2423531,6.27291855 C9.73128061,6.15112391 7.93051082,6.09627595 7.79403106,6.09627597 C7.70404737,6.09627598 7.61342148,6.09954416 7.52218689,6.10600472 C6.49934866,6.17843451 5.43995234,6.63917981 4.38502822,7.35718929 C3.99025673,7.6258813 2.94761021,8.51096954 2.86652925,8.59274442 C2.4754326,8.98718821 2.92286106,9.62984724 3.42852147,9.39995588 C3.48541128,9.37409173 5.97077927,8.0733643 8.10005197,8.74304669 C6.50449475,9.83093254 5.84943798,12.080769 5.69537049,12.5361131 C5.60285196,12.8095502 5.53827178,13.0236749 5.50374105,13.1496829 C5.36614621,13.6517878 5.99184018,14.0036372 6.34939234,13.6252218 C6.44523065,13.5237913 6.69720181,13.340774 7.13253144,13.1464783 C7.65381128,12.9138214 8.29706476,12.7407911 9.07408736,12.6554986 C10.1207013,12.5406134 10.8129426,12.1956789 11.8298785,10.977041 C12.7256013,12.3959963 15.4590744,13.3416772 16.0308614,13.5541346 C16.3740138,13.6816389 16.6418987,13.774064 16.7975064,13.8246529 C17.1698759,13.9457124 17.5305973,13.6111609 17.4378727,13.2307447 C17.402497,13.085611 17.3388795,12.833721 17.2534309,12.5104372 C17.1109955,11.9715513 16.6742707,9.88378899 15.9019318,8.98406975 C16.7975064,8.74304669 19.193862,9.31121819 20.7099473,9.49269822 C21.0458359,9.53290513 21.2998555,9.57293945 21.4475351,9.59270263 C21.9219432,9.65619018 22.2058343,9.08099516 21.8668882,8.74304658 C21.7855617,8.66195945 21.6397212,8.52722441 21.4369735,8.35661685 C21.1022861,8.07498511 20.7263954,7.79378432 20.3164356,7.53086423 C19.3015617,6.87999363 18.2473804,6.44582169 17.1871982,6.33407678 C15.9269044,6.20123988 14.6752087,6.24359463 13.5233847,6.39462091 C13.1230743,6.44710931 12.0250398,6.69775389 10.2423531,6.27291855 Z M13.6533911,7.38613406 C14.7328332,7.24459844 15.9083342,7.20482195 17.0823773,7.32856789 C17.9662415,7.4217286 19.069534,7.94578211 19.776587,8.37262637 C16.7051541,7.78074716 15.9953109,7.93588671 15.292505,8.0839567 C15.0365608,8.13788005 14.8417661,8.19272145 14.7264073,8.23176355 C14.311889,8.37205341 14.264852,8.93950272 14.6506136,9.14612941 C14.773334,9.21186251 15.4777371,9.4154664 16.2460476,12.5748292 C13.878677,11.6614691 13.2753755,11.0985161 13.0422953,10.8637725 C12.7833387,10.6029677 12.2952417,9.76627078 12.2776236,9.71047818 C12.1281321,9.23706977 11.4546639,9.24733512 11.3196703,9.72507979 C11.3061112,9.77306573 10.9513625,10.482743 10.7693038,10.7011806 C10.3273519,11.2314434 9.73962661,11.5764368 8.96497433,11.6614692 C8.08546906,11.7580111 7.68476859,11.8597413 6.91053785,12.132539 C7.68476859,9.9481202 9.4075497,8.96638849 9.48312492,8.91672164 C9.83349166,8.68646607 9.76193329,8.15317111 9.36326065,8.02342285 C9.31305504,8.0070834 8.68386521,7.8332137 8.44916795,7.78074715 C7.90244687,7.65852771 7.03584284,7.51806482 6.00783315,7.56560207 C7.0358428,6.77978517 9.63503988,7.18128909 10.0687702,7.25773781 C10.3921734,7.31474041 10.5752148,7.3676229 10.6387816,7.394613 C11.3351864,7.56998167 12.2659551,7.6175213 12.8517874,7.51806483 C13.0152834,7.48271988 13.2829871,7.43470116 13.6533911,7.38613406 Z"/><path d="M13.7572965,2.34598027 C14.0654382,1.87327353 14.3919143,1.50863534 14.7142667,1.23825262 C14.8980295,1.08411599 15.0318833,0.998432212 15.0926893,0.968567887 C15.3405505,0.846832882 15.442796,0.547215918 15.321061,0.299354667 C15.199326,0.0514934153 14.8997091,-0.0507521097 14.6518478,0.0709828946 C14.1913498,0.29715267 13.54665,0.837914049 12.9195681,1.79989324 C12.1405428,2.99496215 11.5996578,4.57437528 11.3943849,6.58520845 C11.366341,6.85992313 11.5663072,7.10535741 11.8410219,7.13340125 C12.1157366,7.1614451 12.3611709,6.96147888 12.3892147,6.6867642 C12.578625,4.83131987 13.0672197,3.40459719 13.7572965,2.34598027 Z"/></g></g></g></svg>