<svg id="Layer_1" data-name="Layer 1" xmlns="http://www.w3.org/2000/svg" viewBox="0 0 100 100"><defs><style>.cls-1,.cls-3{fill:#b3b3b3;}.cls-2{fill:#fff;}.cls-3{fill-rule:evenodd;}</style></defs><rect class="cls-1" width="100" height="100" rx="7.13"/><path class="cls-2" d="M66.29,36.45c-.07-.12-.13-.25-.19-.38a3.6,3.6,0,0,1,.23-3.32A4.94,4.94,0,0,1,68.24,31c.23-.12.44-.23.64-.31l.12,0c1-.38,2-.69,2.92-.94a29.36,29.36,0,0,1,3-.63l.35,0a4.49,4.49,0,0,1,3.23,1,3.67,3.67,0,0,1,1.32,2.83c.28,3.13.47,6.23.64,9.24l1.84-2.52.31-.37a2.71,2.71,0,0,1,.27-.22h0a3.73,3.73,0,0,1,2.79-.75,4.25,4.25,0,0,1,2.48,1.27l.23.25a18,18,0,0,1,2,2.59,13.15,13.15,0,0,1,1.43,3h0c.05.16.08.28.1.37h0a3.82,3.82,0,0,1-2.57,4.5,1.68,1.68,0,0,1-.27.07h0l-2,.51,2.38.82h0a2.87,2.87,0,0,1,.34.12,3.76,3.76,0,0,1,2,2.1,4.19,4.19,0,0,1,.08,2.72c-.06.18-.11.33-.15.43h0a13,13,0,0,1-1.59,2.77A14.81,14.81,0,0,1,88,62l-.24.23a4.31,4.31,0,0,1-2.63,1.05,3.86,3.86,0,0,1-2.78-1A2.05,2.05,0,0,1,82.1,62l-.29-.38-1.34-2.23V62l0,.48a2,2,0,0,1-.08.34,3.75,3.75,0,0,1-1.83,2.26,4.2,4.2,0,0,1-2.73.44h0l-.3-.07a17.55,17.55,0,0,1-3.14-1,16.24,16.24,0,0,1-2-.93H67.76A3.62,3.62,0,0,1,67,64a3.06,3.06,0,0,1-1.2.24A3.15,3.15,0,0,1,64.61,64a3.4,3.4,0,0,1-.71-.42h-.72c-1.34,1.39-3.37,2.32-6.44,2.22h-.21v.5a4.11,4.11,0,0,1-2.84,4,4.84,4.84,0,0,1-3.3,0,4.12,4.12,0,0,1-2.84-4V64.53a4.69,4.69,0,0,1-1.69,1,4.84,4.84,0,0,1-1.65.3,4.79,4.79,0,0,1-1.64-.3,4.14,4.14,0,0,1-2.68-2.69,8,8,0,0,1-3,2.18,11.27,11.27,0,0,1-4.42.84c-4,0-6.31-1.83-7.62-4.22a10.19,10.19,0,0,1-.74-1.75l-1.52,4.92a7,7,0,0,1-2.68,3.9,7.41,7.41,0,0,1-4.57,1.19,7,7,0,0,1-1.73-.24,4.64,4.64,0,0,1-2.58-1.76,4.24,4.24,0,0,1-.8-2.64,4.9,4.9,0,0,1,.16-1.14,4.23,4.23,0,0,1,1.78-2.46,4.48,4.48,0,0,1,1.19-.57L8.66,51.47c-.07-.15-.14-.31-.21-.49a4.7,4.7,0,0,1,.05-3.43,4.57,4.57,0,0,1,2.22-2.38l.43-.18a4.88,4.88,0,0,1,3.06-.16A4.1,4.1,0,0,1,16.78,47L17.9,49.2l.51-1.69c0-.13.09-.25.14-.37a2.14,2.14,0,0,1,.1-.22,4.14,4.14,0,0,1,2.6-2.25,4.84,4.84,0,0,1,2.82,0l.34.13.32.13a4.82,4.82,0,0,1,1.93,1.64,9.08,9.08,0,0,1,5.88-2.08h.66a7.87,7.87,0,0,1,6.3,2.89l.2.27V43.86a4.12,4.12,0,0,1,2.87-4,4.79,4.79,0,0,1,1.64-.3,4.84,4.84,0,0,1,1.65.3,4.12,4.12,0,0,1,2.87,4v1.73a4.67,4.67,0,0,1,3.1-1.31,4.68,4.68,0,0,1,1.73.27,4.53,4.53,0,0,1,.74.34,8.34,8.34,0,0,1,2.79-.55,8.54,8.54,0,0,1,3.89.82A7.64,7.64,0,0,1,63.51,47c0-.08,0-.16.05-.24s0-.15,0-.25a4.27,4.27,0,0,1,1.56-2.42h0a3.84,3.84,0,0,1,2.77-.77h0a1.8,1.8,0,0,1,.35.07l.42.13,2.67,1.07c-1.76-2.76-3.5-5.5-5-8.1l0-.08Z"/><path class="cls-3" d="M68.71,35.12c-.39-.73.16-1.46,1.23-1.91a29.2,29.2,0,0,1,5.38-1.44c1.31-.05,1.68.51,1.69,1.2.36,4,.58,8.16.8,12.14,0,1.57-1.53,2-2.41.7-2.28-3.59-4.55-7.07-6.69-10.69Zm-1,11a1.26,1.26,0,0,0-1.38,1.2,14.07,14.07,0,0,0-.09,5.32,1.13,1.13,0,0,0,1.49.88l6.41-2a1.46,1.46,0,0,0,0-2.84l-6.4-2.57ZM77.7,62a1.21,1.21,0,0,1-1.61.74,14.43,14.43,0,0,1-5-2,1.07,1.07,0,0,1-.26-1.65l4.37-5.2c1.06-1.25,2.62-.68,2.45,1.14V62Zm6.49-1.83A1.33,1.33,0,0,0,86.06,60a12.38,12.38,0,0,0,3-4.14,1.16,1.16,0,0,0-.56-1.66L82.12,52a1.38,1.38,0,0,0-1.51,2.24l3.58,5.94Zm.29-19a1.2,1.2,0,0,1,1.74.35A14.23,14.23,0,0,1,89.05,46a1.06,1.06,0,0,1-.75,1.49l-6.56,1.67a1.42,1.42,0,0,1-1.35-2.41l4.09-5.6Z"/><path class="cls-3" d="M46,43.86V61.55c0,2.06-3.48,2.06-3.48,0V43.86c0-2.07,3.48-2.07,3.48,0Z"/><path class="cls-3" d="M24.53,49.3,20,64c-.7,2.26-2.08,3.2-4.54,3.14-2.25,0-2.6-1.38-2.35-2.25a1.75,1.75,0,0,1,1.86-1.25c1.39,0,1.61,0,2-1.07a4.31,4.31,0,0,0-.61-1.82L11.16,50.26a1.85,1.85,0,0,1,.94-2.66,1.61,1.61,0,0,1,2.2.65l4.26,8.36,2.51-8.3a1.73,1.73,0,0,1,2.48-.87,1.55,1.55,0,0,1,1,1.86Z"/><path class="cls-3" d="M63,54.44c0,1.58.47,8.8-6.13,8.59A4.88,4.88,0,0,1,54,61.79a5.73,5.73,0,0,0-.19,1.45v3c0,2.06-3.44,2.06-3.44,0V48.59c0-2,3.17-2.06,3.31-.13a10.87,10.87,0,0,1,1-.67,5.68,5.68,0,0,1,5.17-.13C62.68,49,63,52.16,63,54.44Zm-6.69,4.47c-1.19-1.5-1-6.11,0-7.72.75-1.19,3.3-1.26,4,0,.91,1.65,1.06,6.2-.11,7.69a2.7,2.7,0,0,1-3.86,0Z"/><path class="cls-3" d="M38.76,54.6c0,.32.13,1.76-.78,1.9H30.73c-.63,0-.81.24-.73.82A4,4,0,0,0,30.68,59c.84,1.06,2.6,1.19,4.14.3A7.35,7.35,0,0,1,36.51,58a1.5,1.5,0,0,1,1.85,1.53,2.48,2.48,0,0,1-.3,1.16c-1,1.44-2.79,2.38-5.6,2.41-5.52,0-6.17-4.93-6.2-7.59-.07-5.11,1.7-8.13,6.37-8.3,4.47-.16,6.22,2.91,6.13,7.35Zm-3.62-1c-.11-1.62-.6-3.28-3-3.22a3,3,0,0,0-3.1,3c0,.37.13.39.59.37h5.16c.26,0,.34,0,.36-.14Z"/><path class="cls-1" d="M65.66,60.65V61h.16A.34.34,0,0,0,66,61a.12.12,0,0,0,.06-.12.17.17,0,0,0-.06-.14.52.52,0,0,0-.21,0Zm-.23-.15h.42a.63.63,0,0,1,.34.08.24.24,0,0,1,.12.22.32.32,0,0,1-.06.2.4.4,0,0,1-.18.1l.24.5h-.26l-.22-.46h-.17v.46h-.23V60.5Zm.39-.26a.81.81,0,0,0-.31.06.68.68,0,0,0-.26.18.83.83,0,0,0-.19.27.87.87,0,0,0-.06.32.81.81,0,0,0,.06.31.8.8,0,0,0,.18.27.76.76,0,0,0,.26.18.7.7,0,0,0,.31.07.92.92,0,0,0,.33-.06,1,1,0,0,0,.27-.19.68.68,0,0,0,.18-.26.78.78,0,0,0,.06-.31.87.87,0,0,0-.06-.32,1,1,0,0,0-.17-.27,1.07,1.07,0,0,0-.28-.19.83.83,0,0,0-.32-.06Zm0-.15a1,1,0,0,1,.38.08.87.87,0,0,1,.32.22,1,1,0,0,1,.21.31.9.9,0,0,1,.07.37,1,1,0,0,1-.07.38.93.93,0,0,1-.22.31,1,1,0,0,1-.32.21.9.9,0,0,1-.37.07.94.94,0,0,1-.37-.07,1.14,1.14,0,0,1-.32-.22,1.06,1.06,0,0,1-.21-.31.94.94,0,0,1-.07-.37,1,1,0,0,1,.08-.38,1.11,1.11,0,0,1,.21-.32,1.06,1.06,0,0,1,.31-.21,1.16,1.16,0,0,1,.37-.07Z"/></svg>