<svg id="Layer_1" data-name="Layer 1" xmlns="http://www.w3.org/2000/svg" viewBox="0 0 100 100"><defs><style>.cls-1{fill:#fa4778;}.cls-2{fill:#fff;}</style></defs><rect class="cls-1" width="100" height="100" rx="7.13"/><path class="cls-2" d="M66.24,28.7l-1.59,7.67a2,2,0,0,1-1.91,1.54H48.94a2.83,2.83,0,0,0-2.81,2.81V42.4a2.83,2.83,0,0,0,2.81,2.82H60.61a1.84,1.84,0,0,1,1.77,2.18c-.23,1.18-1.46,7.17-1.59,7.8a1.94,1.94,0,0,1-1.91,1.55H49.35c-2,0-2.41.09-3.59,1.54S34.14,72.81,34.14,72.81s-.18.1-.18,0V28.33a1.92,1.92,0,0,1,1.91-1.9H64.51a1.85,1.85,0,0,1,1.73,2.27m2.08-9.58H33a5.87,5.87,0,0,0-6.31,6V81.3c0,2.77,1.41,3.59,2.18,3.91a4.21,4.21,0,0,0,4.27-.91L50.17,64.42c.27-.32.41-.32.59-.32H61.38c4.54,0,5.4-3.13,5.9-5,.41-1.59,5.08-24.28,6.54-31.45,1.08-5.54-.32-8.49-5.5-8.49"/></svg>