<svg id="Layer_1" data-name="Layer 1" xmlns="http://www.w3.org/2000/svg" viewBox="0 0 100 100"><defs><style>.cls-1{fill:#fff;}.cls-2{fill:#4285f4;}.cls-3{fill:#34a853;}.cls-4{fill:#fbbc05;}.cls-5{fill:#eb4335;}</style></defs><circle class="cls-1" cx="50" cy="50" r="50"/><path class="cls-2" d="M85,50.79a30.37,30.37,0,0,0-.76-7.3H50.71V56.75H70.39a17.42,17.42,0,0,1-7.3,11.58l-.06.45L73.63,77l.73.07C81.11,70.83,85,61.66,85,50.79"/><path class="cls-3" d="M50.71,85.71c9.64,0,17.74-3.17,23.65-8.65L63.09,68.33A21.07,21.07,0,0,1,50.71,71.9,21.48,21.48,0,0,1,30.4,57.06l-.42,0L19,65.63l-.15.4a35.68,35.68,0,0,0,31.9,19.68"/><path class="cls-4" d="M30.4,57.06A22.06,22.06,0,0,1,29.21,50a23.2,23.2,0,0,1,1.15-7.06l0-.48L19.18,33.8l-.37.17a35.63,35.63,0,0,0,0,32.06l11.59-9"/><path class="cls-5" d="M50.71,28.1a19.75,19.75,0,0,1,13.81,5.32L74.6,23.57a34.32,34.32,0,0,0-23.89-9.28A35.68,35.68,0,0,0,18.81,34l11.55,9A21.59,21.59,0,0,1,50.71,28.1"/></svg>