<svg id="Layer_1" data-name="Layer 1" xmlns="http://www.w3.org/2000/svg" viewBox="0 0 100 100"><defs><style>.cls-1{fill:#e23744;}.cls-2{fill:#fff;}</style></defs><rect class="cls-1" width="100" height="100" rx="7.13"/><path id="zomato-copy-10" class="cls-2" d="M20.52,45.09l-.08,2.54-6.62,7.2c2.76,0,4.52,0,5.52-.08-.3,1.36-.54,2.48-.78,4.16-1.32-.12-3.4-.14-5.48-.14-2.32,0-4.34,0-6,.14l.06-2.56,6.62-7.16c-2.9,0-4,0-5.16.06.26-1.28.46-2.7.64-4.12,2.12,0,3,.08,5.68.08C17.5,45.21,18.92,45.17,20.52,45.09Zm4.7,8c0,1.7.56,2.56,1.53,2.56C28,55.61,29,53.55,29,51c0-1.72-.56-2.56-1.48-2.56C26.27,48.47,25.22,50.51,25.22,53.05Zm8.71-2.22c0,4.62-3.26,8.48-7.6,8.48-3.89,0-5.89-2.64-5.89-6.1,0-4.6,3.3-8.44,7.61-8.44C32,44.77,33.93,47.41,33.93,50.83ZM86,53.05c0,1.7.56,2.56,1.52,2.56,1.28,0,2.28-2.06,2.28-4.58,0-1.72-.56-2.56-1.48-2.56C87,48.47,86,50.51,86,53.05Zm8.86-2.3c0,4.68-3.32,8.58-7.7,8.58-3.94,0-5.94-2.68-5.94-6.18,0-4.66,3.34-8.56,7.7-8.56C92.9,44.59,94.86,47.27,94.86,50.75Zm-38.59-1.5c.34-2.38.16-4.52-2.48-4.52-1.92,0-4,1.62-5.44,4.32.32-2.24.14-4.32-2.48-4.32-2,0-4.1,1.7-5.56,4.52a13.73,13.73,0,0,0,.18-4.38,29.6,29.6,0,0,1-4.7.44,24.4,24.4,0,0,1-.26,4.54L34.91,54c-.24,1.64-.5,3.54-.78,4.74h4.94c0-.72.22-1.86.34-2.88L39.83,53c.34-1.86,1.84-4.08,3-4.08.66,0,.64.64.46,1.84L42.79,54c-.24,1.64-.5,3.54-.78,4.74h5c0-.72.18-1.86.32-2.88L47.75,53c.34-1.86,1.84-4.08,3-4.08.66,0,.64.62.54,1.44l-1.2,8.36h4.56Zm23.87,5.6-.54,3.3a9.09,9.09,0,0,1-4.15,1.08c-3,0-3.64-1.62-3.16-5l.78-5.52h-1.5L72,45.09,73.61,45l.62-2.6,4.61-1.72L78.26,45h3.16c-.1.44-.48,2.9-.58,3.66H77.76l-.7,5.1c-.18,1.32-.08,1.78.82,1.78A6.07,6.07,0,0,0,80.14,54.85Z"/><path id="a-copy-7" class="cls-2" d="M62.71,56.41A4,4,0,0,0,65.81,53l0-.44a8.63,8.63,0,0,0-2.76-.16,3.14,3.14,0,0,0-2.18,1.1,2.05,2.05,0,0,0-.42,1.5A1.89,1.89,0,0,0,62.71,56.41ZM61.27,59c-2.36.3-3.92-.64-4.38-2.78a4.87,4.87,0,0,1,.82-3.78,6.52,6.52,0,0,1,4.4-2.2,12.43,12.43,0,0,1,4,.14l.06-.2a4.6,4.6,0,0,0,0-1.06c-.12-1-.92-1.62-2.88-1.38a10.21,10.21,0,0,0-3.58,1.18l-1-2.88a13.2,13.2,0,0,1,4.92-1.58c3.66-.46,6.24.72,6.56,3.4a8.67,8.67,0,0,1,0,2.16q-.72,5-.9,7.5c0,.26,0,.7,0,1.34H64.81a6.3,6.3,0,0,0,.26-1.06c.06-.3.08-.66.12-1.12A5.45,5.45,0,0,1,61.27,59Z"/></svg>