<svg id="Layer_1" data-name="Layer 1" xmlns="http://www.w3.org/2000/svg" viewBox="0 0 100 100"><defs><style>.cls-1{fill:#fff;}.cls-2{fill:#b3b3b3;}</style></defs><circle class="cls-1" cx="50" cy="50" r="50"/><path class="cls-2" d="M84.24,43.49H50.71V56.75H70.39a17.42,17.42,0,0,1-7.3,11.58A21.07,21.07,0,0,1,50.71,71.9,21.49,21.49,0,0,1,30.4,57.07h0A22.06,22.06,0,0,1,29.21,50a23.2,23.2,0,0,1,1.15-7.06A21.58,21.58,0,0,1,50.71,28.1a19.75,19.75,0,0,1,13.81,5.32L74.6,23.57a34.32,34.32,0,0,0-23.89-9.28A35.68,35.68,0,0,0,18.81,34h0a35.71,35.71,0,0,0,31.9,51.74c9.64,0,17.74-3.17,23.65-8.65h0C81.11,70.83,85,61.66,85,50.79A30.37,30.37,0,0,0,84.24,43.49Z"/></svg>