<svg id="Layer_1" data-name="Layer 1" xmlns="http://www.w3.org/2000/svg" viewBox="0 0 100 100"><defs><style>.cls-1{fill:#fc4722;}</style></defs><path class="cls-1" d="M50.56,11.08v0H22.17A11.11,11.11,0,0,0,11.11,22.19V77.81A11.09,11.09,0,0,0,22.19,88.89H77.81A11.11,11.11,0,0,0,88.89,77.78V55.43h0a5.56,5.56,0,0,1,11.11,0h0V77.78A22.22,22.22,0,0,1,77.81,100H22.19A22.2,22.2,0,0,1,0,77.81V22.19A22.22,22.22,0,0,1,22.17,0H50.56V0a5.55,5.55,0,0,1,0,11.05ZM64.48,50.6l6.88,6.87L53.94,74.89c-6.18,6.18-16.86,4.16-24.26-3.24s-9.42-18.09-3.26-24.24L43.86,30l6.87,6.88L33.29,54.29c-1.56,1.56-.64,6.36,3.37,10.37s8.81,5,10.4,3.36Zm13.87-.13L71.48,43.6,88.9,26.18c1.59-1.59.69-6.35-3.35-10.4s-8.82-4.93-10.38-3.37L57.73,29.85,50.86,23,68.29,5.53C74.45-.62,85.17,1.43,92.53,8.8S102,26.88,95.77,33.05ZM64.69,29.76a4.86,4.86,0,1,1,6.88,6.88l-14,14a4.86,4.86,0,1,1-6.87-6.87Z"/></svg>