<svg id="Layer_1" data-name="Layer 1" xmlns="http://www.w3.org/2000/svg" viewBox="0 0 100 100"><defs><style>.cls-1{fill:#b3b3b3;}</style></defs><path class="cls-1" d="M94.44,50a5.56,5.56,0,0,0-5.55,5.43h0V77.78A11.11,11.11,0,0,1,77.81,88.89H22.19A11.09,11.09,0,0,1,11.11,77.81V22.19A11.11,11.11,0,0,1,22.17,11.11H50.56v0a5.55,5.55,0,0,0,0-11V0H22.17A22.22,22.22,0,0,0,0,22.19V77.81A22.2,22.2,0,0,0,22.19,100H77.81A22.22,22.22,0,0,0,100,77.78V55.43h0A5.56,5.56,0,0,0,94.44,50ZM100,5a4,4,0,0,0-.22-.75,5.06,5.06,0,0,0-.28-1,5.75,5.75,0,0,0-.53-.85,5.05,5.05,0,0,0-.6-.78,4.62,4.62,0,0,0-.78-.6,5.75,5.75,0,0,0-.85-.53,5.06,5.06,0,0,0-1-.28A3.81,3.81,0,0,0,95,0V0H68.27V0a5.55,5.55,0,0,0,0,11.05l-1.65,0H80.93l-8.1,8.1-5.52,5.52L52.77,39.28l0,0a5.55,5.55,0,0,0,7.81,7.81l0,0L75.17,32.59l5.52-5.52,8.2-8.2V31.73h0a5.55,5.55,0,0,0,11,0h0V5Z"/></svg>